inDegrees=yes
name=ik_S57_A01_T02
DataType=double
version=3
OpenSimVersion=4.3-2021-08-27-4bc7ad9
endheader
time	pelvis_tilt	pelvis_list	pelvis_rotation	pelvis_tx	pelvis_ty	pelvis_tz	hip_flexion_r	hip_adduction_r	hip_rotation_r	knee_angle_r	knee_angle_r_beta	ankle_angle_r	subtalar_angle_r	mtp_angle_r	hip_flexion_l	hip_adduction_l	hip_rotation_l	knee_angle_l	knee_angle_l_beta	ankle_angle_l	subtalar_angle_l	mtp_angle_l	lumbar_extension	lumbar_bending	lumbar_rotation	arm_flex_r	arm_add_r	arm_rot_r	elbow_flex_r	pro_sup_r	wrist_flex_r	wrist_dev_r	arm_flex_l	arm_add_l	arm_rot_l	elbow_flex_l	pro_sup_l	wrist_flex_l	wrist_dev_l
17.61999999999971	0.8489652123102339	-3.854090962444347	93.19163666130774	0	0.9399999999999999	0	-4.498034321398972	4.623903781092014	-0.6544663051432446	-3.91320088274517	-0.06829823969585178	0	0	0	20.18325329056176	0.4061931878038763	6.017211626147317	15.12569617252514	0.263993199866868	0	0	0	0	0	0	39.48408038563419	-39.48408038563419	4.869629497244019	83.21664734529487	85.13037077168987	0	0	39.48408038563419	-39.48408038563419	4.869629497244019	83.21664734529487	85.13037077166585	0	0
17.63999999999971	0.8402065364759072	-3.655978385496119	92.95732739760982	0	0.9399999999999999	0	-4.721948081340041	4.605253142742899	-0.4269594715987297	-3.941044642551129	-0.06878420498060021	0	0	0	19.746398982471	0.5957855831432991	5.924011765459625	11.88704828876847	0.2074681309825675	0	0	0	0	0	0	39.48557264950882	-39.48557264950882	4.869699630759708	83.21760703334358	85.13030063817729	0	0	39.48557264950882	-39.48557264950882	4.869699630759708	83.21760703334358	85.13030063815332	0	0
17.65999999999971	1.046366435743109	-3.634613042722591	92.27007820609596	0	0.9399999999999999	0	-4.816978209490572	4.762466078192856	0.1604910122218294	-3.020099715463587	-0.05271068377338349	0	0	0	19.26605066353633	0.138851853720252	6.11481752818774	5.509733783266118	0.09616299542635739	0	0	0	0	0	0	39.48958871642036	-39.48958871642036	4.869889730160202	83.22020831826045	85.13011053878539	0	0	39.48958871642036	-39.48958871642036	4.869889730160202	83.22020831826045	85.13011053876143	0	0
17.67999999999971	1.162354019246849	-3.251259692010405	91.6237090666055	0	0.9399999999999999	0	-5.31176170268396	4.830073653707277	0.6804808999622791	-2.150375982918438	-0.03753114105773608	0	0	0	18.36475653514997	-0.1960341881182201	6.497333360186913	-0.2509191012891169	-0.004379364473640237	0	0	0	0	0	0	39.49099372796404	-39.49099372796404	4.869956201077531	83.22111789335874	85.13004406787103	0	0	39.49099372796404	-39.49099372796404	4.869956201077531	83.22111789335874	85.13004406784708	0	0
17.69999999999971	1.196082919478867	-2.919492921254854	90.98754829242414	0	0.9399999999999999	0	-8.560610182535624	4.485555806943827	2.558024630368282	-4.026501104528639	-0.07027570160921311	0	0	0	17.56823552466988	-0.4192609489404608	6.846474513752723	-4.939907829983519	-0.08621765637826066	0	0	0	0	0	0	39.49300165138744	-39.49300165138744	4.870050942933409	83.22241431828792	85.12994932601951	0	0	39.49300165138744	-39.49300165138744	4.870050942933409	83.22241431828792	85.12994932599545	0	0
17.71999999999971	1.25796083569404	-2.920622511449607	90.3737730258147	0	0.9399999999999999	0	-9.384136369548946	4.466352503616267	2.950180100008938	-2.289547126745003	-0.03996013574127623	0	0	0	17.09356541468434	-0.6959721840884644	7.174592153853447	-8.411125998687048	-0.1468018424771852	0	0	0	0	0	0	39.49579911498842	-39.49579911498842	4.870183504425478	83.22422826489999	85.12981676453347	0	0	39.49579911498842	-39.49579911498842	4.870183504425478	83.22422826489999	85.12981676450941	0	0
17.73999999999971	1.257131818012925	-2.894013892476299	90.35635810246788	0	0.9399999999999999	0	-10.03640853389753	4.445707102192543	3.036762751753809	-1.568463445402842	-0.02737485131945391	0	0	0	17.28118960130893	-0.7431755924476521	7.314505832484173	-9.575655609175183	-0.1671267184171703	0	0	0	0	0	0	39.4969261349238	-39.4969261349238	4.870236377952824	83.22495176879933	85.12976389100852	0	0	39.4969261349238	-39.4969261349238	4.870236377952824	83.22495176879933	85.12976389098448	0	0
17.75999999999971	1.405061299613458	-3.091631419925793	89.6805947746597	0	0.9399999999999999	0	-10.34291406017317	4.290707327453365	3.176939393362872	-0.2146239331302215	-0.003745894286702505	0	0	0	16.99210421527597	-1.065093728470331	7.241453710819678	-9.805726428226995	-0.1711422117223845	0	0	0	0	0	0	39.49829237319153	-39.49829237319153	4.870301216585585	83.2258390095781	85.12969905237871	0	0	39.49829237319153	-39.49829237319153	4.870301216585585	83.2258390095781	85.12969905235467	0	0
17.77999999999971	1.401066833937172	-3.077047558836129	89.70009329381041	0	0.9399999999999999	0	-10.70239545966754	4.008992815558958	2.255251578551272	1.537888081013269	0.02684121054085883	0	0	0	16.88144232908828	-0.8958629460149803	7.751083704670875	-9.54869814142355	-0.1666562218469041	0	0	0	0	0	0	39.50017307515483	-39.50017307515483	4.870390250272956	83.22705732736911	85.12961001869542	0	0	39.50017307515483	-39.50017307515483	4.870390250272956	83.22705732736911	85.12961001867136	0	0
17.79999999999971	1.404182851968935	-3.091601850166764	89.68241713105698	0	0.9399999999999999	0	-10.79219912812692	3.78227892470132	1.683089051345462	3.878360808683448	0.06769016569183604	0	0	0	16.86278676328345	-0.4254973903387053	7.915750945559345	-8.404224779782329	-0.146681393484897	0	0	0	0	0	0	39.50156576522826	-39.50156576522826	4.870456204804761	83.22795983545447	85.12954406416661	0	0	39.50156576522826	-39.50156576522826	4.870456204804761	83.22795983545447	85.12954406414258	0	0
17.81999999999971	1.403730254152484	-3.093841808996624	89.68067744747181	0	0.9399999999999999	0	-10.68922916222073	3.541132492609842	0.7119785719081626	6.845229430820599	0.1194717916222369	0	0	0	16.36992525807767	0.4124324192556724	7.361384638066736	-7.725300723645613	-0.1348319333343165	0	0	0	0	0	0	39.50361762724776	-39.50361762724776	4.87055327335111	83.22928809910852	85.12944699562468	0	0	39.50361762724776	-39.50361762724776	4.87055327335111	83.22928809910852	85.12944699560065	0	0
17.83999999999971	0.9939889578222201	-2.203659051405352	88.62057177950572	0	0.9399999999999999	0	-10.92467331843492	2.845472406969541	1.316931702986099	7.469433455185547	0.1303662070516041	0	0	0	14.47251588371794	1.417887035933736	5.769440024119167	-7.216508226336796	-0.1259518290468332	0	0	0	0	0	0	39.50508949999011	-39.50508949999011	4.870622629774287	83.23023715220577	85.12937763920462	0	0	39.50508949999011	-39.50508949999011	4.870622629774287	83.23023715220577	85.12937763918062	0	0
